<svg xmlns="http://www.w3.org/2000/svg" width="81" height="80" viewBox="0 0 81 80">
    <defs>
        <linearGradient id="pluginsdk_80-a" x1="-.031%" x2="100.053%" y1="49.963%" y2="49.963%">
            <stop offset="25.81%" stop-color="#F97A12"/>
            <stop offset="45.91%" stop-color="#B07B58"/>
            <stop offset="72.41%" stop-color="#577BAE"/>
            <stop offset="91.05%" stop-color="#1E7CE5"/>
            <stop offset="100%" stop-color="#087CFA"/>
        </linearGradient>
        <linearGradient id="pluginsdk_80-b" x1="27.55%" x2="82.223%" y1="34.514%" y2="77.605%">
            <stop offset="0%" stop-color="#F97A12"/>
            <stop offset="7.18%" stop-color="#CB7A3E"/>
            <stop offset="15.41%" stop-color="#9E7B6A"/>
            <stop offset="24.2%" stop-color="#757B91"/>
            <stop offset="33.44%" stop-color="#537BB1"/>
            <stop offset="43.24%" stop-color="#387CCC"/>
            <stop offset="53.81%" stop-color="#237CE0"/>
            <stop offset="65.52%" stop-color="#147CEF"/>
            <stop offset="79.25%" stop-color="#0B7CF7"/>
            <stop offset="100%" stop-color="#087CFA"/>
        </linearGradient>
        <linearGradient id="pluginsdk_80-c" x1="63.121%" x2="40.793%" y1="97.699%" y2="-6.587%">
            <stop offset="0%" stop-color="#FE315D"/>
            <stop offset="7.84%" stop-color="#CB417E"/>
            <stop offset="16.01%" stop-color="#9E4E9B"/>
            <stop offset="24.74%" stop-color="#755BB4"/>
            <stop offset="33.92%" stop-color="#5365CA"/>
            <stop offset="43.65%" stop-color="#386DDB"/>
            <stop offset="54.14%" stop-color="#2374E9"/>
            <stop offset="65.76%" stop-color="#1478F3"/>
            <stop offset="79.4%" stop-color="#0B7BF8"/>
            <stop offset="100%" stop-color="#087CFA"/>
        </linearGradient>
        <linearGradient id="pluginsdk_80-d" x1="25.331%" x2="93.854%" y1="24.119%" y2="132.621%">
            <stop offset="0%" stop-color="#FE315D"/>
            <stop offset="4.023%" stop-color="#F63462"/>
            <stop offset="10.37%" stop-color="#DF3A71"/>
            <stop offset="16.67%" stop-color="#C24383"/>
            <stop offset="29.12%" stop-color="#AD4A91"/>
            <stop offset="54.98%" stop-color="#755BB4"/>
            <stop offset="91.75%" stop-color="#1D76ED"/>
            <stop offset="100%" stop-color="#087CFA"/>
        </linearGradient>
    </defs>
    <g fill="none" fill-rule="evenodd">
        <g fill-rule="nonzero" transform="translate(8 8)">
            <path fill="url(#pluginsdk_80-a)"
                  d="M6.08754566,64 L2.66453526e-15,59.1000946 L0,26.7918961 L30,38.6703369 L10.1403967,64 L6.08754566,64 Z"/>
            <path fill="url(#pluginsdk_80-b)"
                  d="M20.9524706,64 L52.2740919,31.9159091 L37.6708832,0.460194805 L38.0580944,1.33226763e-15 L64,0 L64,64 L20.9524706,64 Z"/>
            <path fill="url(#pluginsdk_80-c)"
                  d="M34.4123783,0 L64,0 L64,28.0366227 L49.0078336,44 L34,0.44696173 L34.4123783,0 Z"/>
            <path fill="url(#pluginsdk_80-d)"
                  d="M30.3358775,64 L0,64 L0,49.9709549 L6.23437817,29.2830519 L0,27.1596093 L0,0 L39.4697238,0 L58,21.3844805 L30.5381317,63.9259091 L30.3358775,64 Z"/>
        </g>
        <g fill-rule="nonzero" transform="translate(12 12)">
            <rect width="56" height="56" fill="#000"/>
            <path fill-rule="evenodd" clip-rule="evenodd"
                  d="M15.25 25C15.25 24.5858 15.5858 24.25 16 24.25H20.8949C21.1181 24.25 21.3297 24.3494 21.4722 24.5213L29.4242 34.1106V25C29.4242 24.5858 29.76 24.25 30.1742 24.25H36C36.4142 24.25 36.75 24.5858 36.75 25V46C36.75 46.4142 36.4142 46.75 36 46.75H31.1051C30.8819 46.75 30.6703 46.6506 30.5278 46.4787L22.5758 36.8894V46C22.5758 46.4142 22.24 46.75 21.8258 46.75H16C15.5858 46.75 15.25 46.4142 15.25 46V25ZM16.75 25.75V45.25H21.0758V34.81C21.0758 34.4939 21.274 34.2117 21.5714 34.1045C21.8687 33.9972 22.2014 34.0879 22.4031 34.3313L31.4575 45.25H35.25V25.75H30.9242V36.19C30.9242 36.5061 30.726 36.7883 30.4286 36.8955C30.1313 37.0028 29.7986 36.9121 29.5969 36.6687L20.5425 25.75H16.75ZM40.2179 24.6567C40.3465 24.407 40.6038 24.25 40.8847 24.25H45.3561C45.5983 24.25 45.8257 24.367 45.9665 24.5642L50.918 31.4994C51.1025 31.7577 51.1043 32.1041 50.9227 32.3644L45.9711 39.46C45.8308 39.661 45.6012 39.7808 45.3561 39.7808H40.6615C40.3792 39.7808 40.1209 39.6223 39.9929 39.3707C39.865 39.119 39.8892 38.8169 40.0555 38.5888L44.9114 31.9305L40.2743 25.4358C40.1111 25.2072 40.0893 24.9065 40.2179 24.6567ZM42.3418 25.75L46.4467 31.4994C46.6345 31.7624 46.6327 32.1161 46.4423 32.3771L42.1367 38.2808H44.9649L49.3896 31.9402L44.97 25.75H42.3418ZM39.25 43C39.25 42.5858 39.5858 42.25 40 42.25H49.6462C50.0604 42.25 50.3962 42.5858 50.3962 43V46C50.3962 46.4142 50.0604 46.75 49.6462 46.75H40C39.5858 46.75 39.25 46.4142 39.25 46V43ZM40.75 43.75V45.25H48.8962V43.75H40.75Z"
                  fill="#FFFEFE"/>
        </g>
    </g>
</svg>
