<svg width="16" height="16" viewBox="0 0 13 13" version="1.1" xmlns="http://www.w3.org/2000/svg"
     xml:space="preserve"
     style="fill-rule:evenodd;clip-rule:evenodd;stroke-linejoin:round;stroke-miterlimit:2;">
    <g id="Layer2" transform="matrix(1,0,0,1,-0.199905,0.166211)">
        <path
                d="M12.484,10.083L7.772,9.654C7.8,9.648 7.57,9.691 7.291,9.834C6.687,10.144 5.512,10.068 5.524,10.069C5.57,10.072 4.975,10.061 4.471,9.977C4.026,9.903 3.669,9.756 3.669,9.756C3.248,10.049 2.732,9.901 2.191,9.934C2.045,9.943 1.791,10.013 1.65,10.054C1.588,10.072 1.517,10.032 1.517,10.032C1.517,10.032 1.433,9.612 1.69,9.359C2.183,8.873 2.796,9.19 2.796,9.19C2.441,8.876 2.209,8.527 1.955,8.185C1.651,7.659 1.484,7.1 1.492,6.5C1.484,5.735 1.676,5.053 2.039,4.442C2.349,3.98 2.749,3.594 3.256,3.299C3.562,3.061 4.019,2.843 4.662,2.651C5.091,2.565 5.545,2.573 6.007,2.614C6.407,2.681 6.783,2.799 7.131,2.972C7.476,3.159 7.806,3.402 8.125,3.681C8.383,3.915 8.597,4.187 8.792,4.475C8.9,4.688 8.984,4.906 9.032,5.134C9.075,5.328 9.152,5.492 9.268,5.622C9.491,5.807 9.732,5.912 9.987,5.953C10.435,6.082 10.662,6.318 10.705,6.612C10.72,6.722 10.726,6.771 10.612,6.778C10.48,6.785 10.218,6.814 10.042,7.048C9.888,7.252 9.152,7.285 9.027,7.199C8.897,7.109 8.782,7.014 8.684,6.912C8.587,7.044 8.478,7.174 8.305,7.201C7.952,7.263 7.637,7.228 7.364,7.082C7.173,6.912 7.095,6.85 6.849,6.795C6.635,6.746 6.625,6.762 6.713,6.5C6.764,6.349 7.019,6.074 7.298,5.987C7.633,5.883 8.094,5.839 8.144,5.623C8.195,5.407 7.895,4.958 7.601,4.691C7.281,4.391 6.914,4.2 6.5,4.119C6.138,4.076 5.812,4.105 5.524,4.197C4.899,4.381 4.502,4.719 4.288,5.181C4.082,5.711 4.152,6.131 4.346,6.5C4.514,6.783 4.739,6.977 5.018,7.088C5.138,6.87 5.361,6.637 5.524,6.668C5.686,6.699 5.754,7.184 5.993,7.273C6.242,7.366 6.692,7.381 6.991,7.6C7.319,7.865 7.526,8.169 7.661,8.484C7.729,8.644 7.749,8.978 7.828,9.127C7.917,9.294 8.1,9.31 8.208,9.327L10.09,9.606L12.488,10.003L12.484,10.083ZM5.524,8.99C5.587,8.959 5.817,9.003 5.87,9.052C5.922,9.101 5.877,9.232 5.813,9.263C5.75,9.294 5.549,9.277 5.497,9.228C5.444,9.179 5.46,9.021 5.524,8.99Z"
                style="fill:rgb(0,169,255);"/>
    </g>
</svg>
